<?xml version="1.0" encoding="UTF-8" standalone="no"?><svg width="96" height="96" xmlns="http://www.w3.org/2000/svg" xmlns:xlink="http://www.w3.org/1999/xlink" xml:space="preserve" overflow="hidden"><g transform="translate(-592 -312)"><path d="M635.02 384.95 650.02 369.95 676.92 396.85 681.11 392.65 650.02 361.55 635.02 376.55 618.02 359.55 608.11 349.65 614.02 343.75 598.01 343.75 598.01 359.75 603.91 353.85 614.02 363.95 635.02 384.95Z"/><path d="M675.01 332C675.01 334.761 672.771 337 670.01 337 667.249 337 665.01 334.761 665.01 332 665.01 329.239 667.249 327 670.01 327 672.771 327 675.01 329.239 675.01 332Z"/><path d="M621.91 357.72 625.06 344.18 625.06 344.18 625.06 360.91 629.06 364.91 629.06 360 631.06 360 631.06 366.87 635.06 370.87 635.06 370.87 635.06 344.17 635.06 344.17 638.06 357.43C638.261 358.342 639.066 358.994 640 359L640 359C640.953 359.023 641.79 358.37 642 357.44L645 344.18 645 344.18 645 360.85 647.21 358.72 647.21 358.72C648.771 357.162 651.299 357.162 652.86 358.72L655.07 360.94 655.07 344.17 655.07 344.17 658 357 658.06 357.43C658.261 358.342 659.066 358.994 660 359L660 359C661.041 359.004 661.911 358.208 662 357.17L665 344.11 665 344.11 665 351.11 662 366 665 366 665 370.89 669 374.89 669 366 671 366 671 376.89 675 380.89 675 366 678 366 675 351.1 675 344 675 344 678 357.43C678.205 358.364 679.044 359.022 680 359L680.33 359 680.42 359C681.533 358.717 682.206 357.585 681.923 356.471 681.922 356.468 681.921 356.464 681.92 356.46L678.75 341.92C678.656 341.481 678.416 341.086 678.07 340.8 676.873 339.859 675.519 339.137 674.07 338.67 671.457 337.78 668.623 337.78 666.01 338.67 664.563 339.142 663.209 339.862 662.01 340.8 661.657 341.083 661.41 341.478 661.31 341.92L660 347.59 660 347.59 658.68 341.92C658.586 341.481 658.346 341.086 658 340.8 653.298 337.129 646.702 337.129 642 340.8 641.65 341.085 641.407 341.48 641.31 341.92L640 347.78 640 347.78 638.74 341.92C638.646 341.481 638.406 341.086 638.06 340.8 636.863 339.859 635.509 339.137 634.06 338.67 631.447 337.78 628.613 337.78 626 338.67 624.553 339.142 623.199 339.862 622 340.8 621.65 341.083 621.409 341.479 621.32 341.92L618.54 354.42 620.83 356.71 621.83 357.71Z"/><path d="M635.02 332C635.02 334.761 632.781 337 630.02 337 627.259 337 625.02 334.761 625.02 332 625.02 329.239 627.259 327 630.02 327 632.781 327 635.02 329.239 635.02 332Z"/><path d="M655.05 332C655.05 334.761 652.811 337 650.05 337 647.289 337 645.05 334.761 645.05 332 645.05 329.239 647.289 327 650.05 327 652.811 327 655.05 329.239 655.05 332Z"/></g></svg>